# xmcd
# 
# Track frame offsets:
#     150
#     21803
#     36965
#     58271
#     77135
#     100391
#     117395
#     134127
#     153051
#     157555
#     174628
#     191503
#     206339
# 
# Disc length: 3223
# 
# Revision: 7
# Processed by: cddbd v1.5.2PL0 Copyright (c) Steve Scherf et al.
# Submitted via: fre:ac v1.0.31
# 
DISCID=a90c950d
DTITLE=Gary Clark Jr. - The Story Of Sonny Boy Slim
DYEAR=2015
DGENRE=Blues
TTITLE0=The Healing
TTITLE1=Grinder
TTITLE2=Star
TTITLE3=Our Love
TTITLE4=Church
TTITLE5=Hold On
TTITLE6=Cold Blooded
TTITLE7=Wings
TTITLE8=BYOB
TTITLE9=Can't Sleep
TTITLE10=Stay
TTITLE11=Shake
TTITLE12=Down to Ride
EXTD=
EXTT0=
EXTT1=
EXTT2=
EXTT3=
EXTT4=
EXTT5=
EXTT6=
EXTT7=
EXTT8=
EXTT9=
EXTT10=
EXTT11=
EXTT12=
PLAYORDER=
